<?xml version="1.0" encoding="utf-8"?>
<!-- Generator: Adobe Illustrator 26.5.0, SVG Export Plug-In . SVG Version: 6.00 Build 0)  -->
<svg version="1.1" id="Layer_1" xmlns="http://www.w3.org/2000/svg" xmlns:xlink="http://www.w3.org/1999/xlink" x="0px" y="0px"
	 viewBox="0 0 612 218.6" style="enable-background:new 0 0 612 218.6;" xml:space="preserve">
<style type="text/css">
	.st0{fill:#FFFFFF;}
</style>
<g>
	<path class="st0" d="M141.7,167.7v-25.5h3.9l7.8,16.4l7.8-16.4h3.9v25.5h-3v-21.2l-7.5,15.8h-2.4l-7.5-15.8v21.2H141.7z"/>
	<path class="st0" d="M170,158.9c0-5.6,2.9-9.2,8.1-9.2c3.5,0,5.8,1.9,6.7,4.2l-2.6,0.7c-0.7-1.4-1.9-2.4-4.1-2.4
		c-3.4,0-5.3,2.5-5.3,6.7c0,4.2,1.9,6.7,5.2,6.7c2.3,0,3.6-1.1,4.4-2.6l2.4,0.7c-0.9,2.3-3.3,4.3-6.8,4.3
		C172.9,168.1,170,164.6,170,158.9z"/>
	<path class="st0" d="M189.3,167.7v-25.5h7.2c7.5,0,11.6,4.2,11.6,12.7s-4.1,12.7-11.6,12.7H189.3z M192.3,144.9V165h4.1
		c5.5,0,8.6-3.3,8.6-10s-3.2-10-8.6-10H192.3z"/>
	<path class="st0" d="M211.9,158.9c0-5.7,3-9.2,8.1-9.2c5,0,8.1,3.5,8.1,9.2c0,5.6-3.1,9.2-8.1,9.2
		C214.9,168.1,211.9,164.6,211.9,158.9z M225.2,158.9c0-4.2-1.9-6.7-5.2-6.7c-3.4,0-5.2,2.5-5.2,6.7c0,4.2,1.9,6.7,5.2,6.7
		C223.3,165.6,225.2,163.1,225.2,158.9z"/>
	<path class="st0" d="M232.7,167.7v-17.6h2.5v3.6c1.2-2.2,3.1-3.9,6.2-3.9c3.4,0,5.6,2.1,5.6,6.7v11.3h-2.9V157
		c0-3.3-1.3-4.6-3.4-4.6c-2.6,0-4.3,1.8-4.9,3.7c-0.1,0.5-0.2,1-0.3,2.2v9.4H232.7z"/>
	<path class="st0" d="M252.8,167.7v-17.6h2.5v3.6c1.2-2.2,3.1-3.9,6.2-3.9c3.4,0,5.6,2.1,5.6,6.7v11.3h-2.9V157
		c0-3.3-1.3-4.6-3.4-4.6c-2.6,0-4.3,1.8-4.9,3.7c-0.1,0.5-0.2,1-0.3,2.2v9.4H252.8z"/>
	<path class="st0" d="M271.2,158.9c0-5.6,3-9.2,8.1-9.2c5.1,0,7.7,3.7,7.7,9.9H274c0.2,3.8,2.2,6.1,5.3,6.1c2.3,0,3.8-1.1,4.8-2.9
		l2.5,0.8c-1.4,2.7-3.7,4.4-7.4,4.4C274.2,168.1,271.2,164.6,271.2,158.9z M274.1,157.4h10.1c-0.2-3.3-2-5.4-4.9-5.4
		C276.4,152,274.5,154,274.1,157.4z"/>
	<path class="st0" d="M292.5,167.8c-0.7-1.6-0.8-2.5-0.8-4.6v-21.1h2.9v19.9c0,2.5,0.2,3.6,0.9,5.4L292.5,167.8z"/>
	<path class="st0" d="M301.5,167.8c-0.7-1.6-0.8-2.5-0.8-4.6v-21.1h2.9v19.9c0,2.5,0.2,3.6,0.9,5.4L301.5,167.8z"/>
	<path class="st0" d="M316.9,155c0-8.4,4-13.1,10.7-13.1c4.3,0,6.6,1.9,8.2,4.1l-2.5,1.6c-1.1-1.5-2.7-2.9-5.8-2.9
		c-4.8,0-7.7,3.7-7.7,10.4s2.9,10.4,7.7,10.4c3.2,0,5.1-1.6,6.2-3.5l2.5,1.3c-1.6,2.7-4.2,4.9-8.8,4.9
		C320.9,168.1,316.9,163.3,316.9,155z"/>
	<path class="st0" d="M338.4,158.9c0-5.6,3-9.2,8.1-9.2c5.1,0,7.7,3.7,7.7,9.9h-13.1c0.2,3.8,2.2,6.1,5.3,6.1c2.3,0,3.8-1.1,4.8-2.9
		l2.5,0.8c-1.4,2.7-3.7,4.4-7.4,4.4C341.4,168.1,338.4,164.6,338.4,158.9z M341.3,157.4h10.1c-0.2-3.3-2-5.4-4.9-5.4
		C343.6,152,341.7,154,341.3,157.4z"/>
	<path class="st0" d="M358.9,167.7v-17.6h2.5v3.6c1.2-2.2,3.1-3.9,6.2-3.9c3.4,0,5.6,2.1,5.6,6.7v11.3h-2.9V157
		c0-3.3-1.3-4.6-3.4-4.6c-2.6,0-4.3,1.8-4.9,3.7c-0.1,0.5-0.2,1-0.3,2.2v9.4H358.9z"/>
	<path class="st0" d="M382.4,152.5v9.6c0,2.3,1,3.5,2.9,3.5c0.7,0,1.6-0.1,2.3-0.4l0.3,2.4c-0.9,0.2-2.1,0.4-3.2,0.4
		c-3.7,0-5.3-2-5.3-6.2v-9.3h-3v-2.4h3v-4.9l2.9-0.6v5.5h5.1v2.4H382.4z"/>
	<path class="st0" d="M389.8,158.9c0-5.6,3-9.2,8.1-9.2c5.1,0,7.7,3.7,7.7,9.9h-13.1c0.2,3.8,2.2,6.1,5.3,6.1c2.3,0,3.8-1.1,4.8-2.9
		l2.5,0.8c-1.4,2.7-3.7,4.4-7.4,4.4C392.7,168.1,389.8,164.6,389.8,158.9z M392.6,157.4h10.1c-0.2-3.3-2-5.4-4.9-5.4
		C394.9,152,393,154,392.6,157.4z"/>
	<path class="st0" d="M410.2,167.7v-17.6h2.5v3.9c0.8-2.3,2.5-4.2,5.1-4.2c0.8,0,1.5,0.2,2.2,0.4l-0.6,2.7c-0.5-0.2-1-0.3-1.8-0.3
		c-2.3,0-3.7,1.9-4.2,4c-0.2,0.9-0.3,1.7-0.3,2.7v8.4H410.2z"/>
	<path class="st0" d="M432.6,167.7v-15.2h-3.1v-2.4h3.1v-1.7c0-4.4,2.2-6.4,5.6-6.4c1.7,0,3,0.4,4.1,1.3l-1.2,2.1
		c-0.8-0.7-1.6-0.9-2.6-0.9c-1.7,0-3,1.3-3,3.9v1.7h5.1v2.4h-5.1v15.2H432.6z"/>
	<path class="st0" d="M442.6,158.9c0-5.7,3-9.2,8.1-9.2c5,0,8.1,3.5,8.1,9.2c0,5.6-3.1,9.2-8.1,9.2
		C445.6,168.1,442.6,164.6,442.6,158.9z M455.9,158.9c0-4.2-1.9-6.7-5.2-6.7c-3.4,0-5.3,2.5-5.3,6.7c0,4.2,1.9,6.7,5.3,6.7
		C454,165.6,455.9,163.1,455.9,158.9z"/>
	<path class="st0" d="M463.4,167.7v-17.6h2.5v3.9c0.8-2.3,2.5-4.2,5.1-4.2c0.8,0,1.5,0.2,2.2,0.4l-0.6,2.7c-0.5-0.2-1-0.3-1.8-0.3
		c-2.3,0-3.7,1.9-4.2,4c-0.2,0.9-0.3,1.7-0.3,2.7v8.4H463.4z"/>
	<path class="st0" d="M163.2,189.5v9.6c0,2.3,1,3.5,2.9,3.5c0.7,0,1.6-0.1,2.3-0.4l0.3,2.4c-0.9,0.2-2.1,0.4-3.2,0.4
		c-3.7,0-5.3-2-5.3-6.2v-9.3h-3v-2.4h3v-4.9l2.9-0.6v5.5h5.1v2.4H163.2z"/>
	<path class="st0" d="M172.7,204.7v-25.5h2.9v11c1.2-2,3-3.5,5.9-3.5c3.4,0,5.6,2.1,5.6,6.7v11.3h-2.9V194c0-3.3-1.3-4.6-3.4-4.6
		c-2.6,0-4.3,1.8-4.9,3.7c-0.1,0.5-0.3,1.2-0.3,2.7v8.9H172.7z"/>
	<path class="st0" d="M191.1,195.9c0-5.6,3-9.2,8.1-9.2c5.1,0,7.7,3.7,7.7,9.9h-13.1c0.2,3.8,2.2,6.1,5.3,6.1c2.3,0,3.8-1.1,4.8-2.9
		l2.5,0.8c-1.4,2.7-3.7,4.4-7.4,4.4C194,205.1,191.1,201.6,191.1,195.9z M194,194.4h10.1c-0.2-3.3-2-5.4-4.9-5.4
		C196.3,189,194.4,191,194,194.4z"/>
	<path class="st0" d="M217.9,201.1l1.9-1.8c0.9,1.3,3,3.1,6.2,3.1c3.4,0,5.3-1.9,5.3-4.7c0-2.6-1.9-3.8-4.3-4.7l-1.8-0.6
		c-3.9-1.3-6.3-3-6.3-7.1s3-6.6,7.8-6.6c3.5,0,6,1.7,7.3,3.5l-1.9,1.8c-0.9-1.2-2.9-2.6-5.5-2.6c-2.9,0-4.8,1.5-4.8,4
		c0,2.5,1.8,3.6,4.3,4.5l1.8,0.6c3.9,1.2,6.4,3.3,6.4,7.3c0,4.3-3,7.3-8.4,7.3C221.8,205.1,219.1,202.8,217.9,201.1z"/>
	<path class="st0" d="M238.8,212.1v-25h2.7v3.4c1.2-2.2,3.3-3.7,6.1-3.7c4.7,0,7.3,3.5,7.3,9.2c0,5.6-2.6,9.2-7.3,9.2
		c-2.7,0-4.7-1.4-5.9-3.4v10.3H238.8z M241.7,195.2v1.2c0,3.5,1.9,6.2,5.3,6.2c3.1,0,5-2.6,5-6.7c0-4.2-1.9-6.7-5-6.7
		C243.5,189.2,241.8,192,241.7,195.2z"/>
	<path class="st0" d="M269.9,204.8c-0.4-1.3-0.5-2.2-0.6-3c-1.3,2-3.3,3.2-6,3.2c-3.3,0-5.8-1.5-5.8-5.1c0-3.6,3.1-5.4,7.4-5.4
		c1.2,0,2.8,0.1,4.1,0.2v-1c0-3.3-1.7-4.6-4.2-4.6c-1.9,0-3.4,0.9-3.9,1.9l-2.4-1.2c0.9-1.6,3.4-3.1,6.5-3.1c4.1,0,6.8,2,6.8,7.2
		v5.5c0,1.6,0.1,2.8,0.7,5L269.9,204.8z M269,197c-1.3-0.1-2.8-0.2-4-0.2c-2.5,0-4.8,0.8-4.8,2.9c0,2.3,1.6,3.2,3.5,3.2
		c2.4,0,4.3-1.4,4.9-3.5C268.9,198.7,269,198.1,269,197z"/>
	<path class="st0" d="M276,195.9c0-5.6,2.9-9.2,8.1-9.2c3.5,0,5.8,1.9,6.7,4.2l-2.6,0.7c-0.7-1.4-1.9-2.4-4.1-2.4
		c-3.4,0-5.3,2.5-5.3,6.7c0,4.2,1.9,6.7,5.2,6.7c2.3,0,3.6-1.1,4.4-2.6l2.4,0.7c-0.9,2.3-3.3,4.3-6.8,4.3
		C278.9,205.1,276,201.6,276,195.9z"/>
	<path class="st0" d="M293.4,195.9c0-5.6,3-9.2,8.1-9.2c5.1,0,7.7,3.7,7.7,9.9h-13.1c0.2,3.8,2.2,6.1,5.3,6.1c2.3,0,3.8-1.1,4.8-2.9
		l2.5,0.8c-1.4,2.7-3.7,4.4-7.4,4.4C296.4,205.1,293.4,201.6,293.4,195.9z M296.3,194.4h10.1c-0.2-3.3-2-5.4-4.9-5.4
		C298.6,189,296.7,191,296.3,194.4z"/>
	<path class="st0" d="M320.2,201.1l1.9-1.8c0.9,1.3,3,3.1,6.2,3.1c3.4,0,5.3-1.9,5.3-4.7c0-2.6-1.9-3.8-4.3-4.7l-1.8-0.6
		c-3.9-1.3-6.3-3-6.3-7.1s3-6.6,7.8-6.6c3.5,0,6,1.7,7.3,3.5l-1.9,1.8c-0.9-1.2-2.9-2.6-5.5-2.6c-2.9,0-4.8,1.5-4.8,4
		c0,2.5,1.8,3.6,4.3,4.5l1.8,0.6c3.9,1.2,6.4,3.3,6.4,7.3c0,4.3-3,7.3-8.4,7.3C324.1,205.1,321.4,202.8,320.2,201.1z"/>
	<path class="st0" d="M339.7,195.9c0-5.6,2.9-9.2,8.1-9.2c3.5,0,5.8,1.9,6.7,4.2l-2.6,0.7c-0.7-1.4-1.9-2.4-4.1-2.4
		c-3.4,0-5.2,2.5-5.2,6.7c0,4.2,1.9,6.7,5.2,6.7c2.3,0,3.6-1.1,4.4-2.6l2.4,0.7c-0.9,2.3-3.3,4.3-6.8,4.3
		C342.6,205.1,339.7,201.6,339.7,195.9z"/>
	<path class="st0" d="M358,182c0-1.1,0.9-2,2-2s2,0.9,2,2c0,1.1-0.9,2-2,2S358,183.1,358,182z M358.6,204.7v-17.6h2.9v17.6H358.6z"
		/>
	<path class="st0" d="M366.1,195.9c0-5.6,3-9.2,8.1-9.2c5.1,0,7.7,3.7,7.7,9.9h-13.1c0.2,3.8,2.2,6.1,5.3,6.1c2.3,0,3.8-1.1,4.8-2.9
		l2.5,0.8c-1.4,2.7-3.7,4.4-7.4,4.4C369,205.1,366.1,201.6,366.1,195.9z M369,194.4h10.1c-0.2-3.3-2-5.4-4.9-5.4
		C371.3,189,369.4,191,369,194.4z"/>
	<path class="st0" d="M386.5,204.7v-17.6h2.5v3.6c1.2-2.2,3.1-3.9,6.2-3.9c3.4,0,5.6,2.1,5.6,6.7v11.3h-2.9V194
		c0-3.3-1.3-4.6-3.4-4.6c-2.6,0-4.3,1.8-4.9,3.7c-0.1,0.5-0.2,1-0.3,2.2v9.4H386.5z"/>
	<path class="st0" d="M404.9,195.9c0-5.6,2.9-9.2,8.1-9.2c3.5,0,5.8,1.9,6.7,4.2l-2.6,0.7c-0.7-1.4-1.9-2.4-4.1-2.4
		c-3.4,0-5.3,2.5-5.3,6.7c0,4.2,1.9,6.7,5.2,6.7c2.3,0,3.6-1.1,4.4-2.6l2.4,0.7c-0.9,2.3-3.3,4.3-6.8,4.3
		C407.8,205.1,404.9,201.6,404.9,195.9z"/>
	<path class="st0" d="M422.4,195.9c0-5.6,3-9.2,8.1-9.2c5.1,0,7.7,3.7,7.7,9.9h-13.1c0.2,3.8,2.2,6.1,5.3,6.1c2.3,0,3.8-1.1,4.8-2.9
		l2.5,0.8c-1.4,2.7-3.7,4.4-7.4,4.4C425.3,205.1,422.4,201.6,422.4,195.9z M425.2,194.4h10.1c-0.2-3.3-2-5.4-4.9-5.4
		C427.6,189,425.7,191,425.2,194.4z"/>
	<path class="st0" d="M441,202.7l1.4-1.9c1.1,1.1,3.2,1.9,5.3,1.9c2.1,0,3.8-0.8,3.8-2.7c0-1.7-1.6-2.3-3.4-2.9l-1.3-0.4
		c-2.8-0.9-5.2-2.1-5.2-5.2c0-3.4,2.9-4.8,6.3-4.8c2.3,0,4.4,0.8,5.5,1.9l-1.4,1.8c-0.8-0.8-2.4-1.4-4-1.4c-2,0-3.5,0.8-3.5,2.4
		c0,1.6,1.7,2.3,3.4,2.9l1.3,0.4c2.8,0.9,5.2,2,5.2,5.2c0,3.5-3.2,5.2-6.7,5.2C444.9,205.1,442.4,204.1,441,202.7z"/>
</g>
<g>
	<g>
		<g>
			<path class="st0" d="M62.6,43.8c-1,0.2-5.4,1.1-10.9,1.8c-0.1,0-0.2-0.1-0.2-0.2l0-6c0-0.1,0.1-0.2,0.2-0.2
				c5.6-0.8,10.1-1.6,11-1.8c0.1,0,0.2-0.1,0.2-0.2l0-6c0-0.1-0.1-0.2-0.2-0.2c-1,0.2-5.4,1.1-10.9,1.8c-0.1,0-0.2-0.1-0.2-0.2l0-2
				c0-0.1-0.1-0.2-0.3-0.2c-5.3,1.4-8.7,0.2-14.4,2.9c-0.1,0-0.1,0-0.2,0c-5.7-2.7-9.1-1.5-14.4-2.9c-0.1,0-0.3,0.1-0.3,0.2l0,2
				c0,0.1-0.1,0.2-0.2,0.2c-5.4-0.7-9.8-1.6-10.9-1.8c-0.1,0-0.2,0.1-0.2,0.2l0,6c0,0.1,0.1,0.2,0.2,0.2c0.9,0.2,5.4,1.1,11,1.8
				c0.1,0,0.2,0.1,0.2,0.2l0,6c0,0.1-0.1,0.2-0.2,0.2c-5.4-0.7-9.8-1.6-10.9-1.8c-0.1,0-0.2,0.1-0.2,0.2l0,6c0,0.1,0.1,0.2,0.2,0.2
				c1.3,0.3,10.1,2,18.9,2.7c2.6,0.3,4,0.6,5.8,1.7l1.2,0.7c0.1,0,0.1,0,0.2,0l1.2-0.7c1.8-1.1,3.1-1.4,5.8-1.7c9-0.7,18-2.5,19-2.7
				c0.1,0,0.1-0.1,0.1-0.1v-6C62.8,43.8,62.7,43.7,62.6,43.8z M49.1,33.4l0,16.2c0,0.1-0.1,0.2-0.2,0.2c-6.5,0.8-8.8,0.6-12.1,2.6
				c-0.1,0-0.1,0-0.2,0c-3.3-2-5.6-1.7-12.1-2.6c-0.1,0-0.2-0.1-0.2-0.2l0-16.2c0-0.1,0.1-0.2,0.2-0.2c3.5,0.5,7.7,0,12.1,2.6
				c0.1,0,0.1,0,0.2,0c4.4-2.6,8.6-2.1,12.1-2.6C49,33.2,49.1,33.2,49.1,33.4z"/>
			<g>
				<path class="st0" d="M35.7,23.2l0.9-2.6c0.1-0.2,0.3-0.2,0.4,0l0.9,2.6c0,0.1,0.1,0.1,0.2,0.1l2.7,0c0.2,0,0.3,0.2,0.1,0.4
					l-2.2,1.6c-0.1,0.1-0.1,0.1-0.1,0.2l0.8,2.6c0.1,0.2-0.2,0.3-0.3,0.2l-2.2-1.6c-0.1,0-0.2,0-0.2,0l-2.2,1.6
					c-0.2,0.1-0.4,0-0.3-0.2l0.8-2.6c0-0.1,0-0.2-0.1-0.2l-2.2-1.6c-0.2-0.1-0.1-0.4,0.1-0.4l2.7,0C35.6,23.3,35.6,23.2,35.7,23.2z
					 M18.4,21.6l0.9-2.6c0.1-0.2,0.3-0.2,0.4,0l0.9,2.6c0,0.1,0.1,0.1,0.2,0.1l2.7,0.1c0.2,0,0.3,0.2,0.1,0.4l-2.2,1.7
					c-0.1,0.1-0.1,0.1-0.1,0.2l0.8,2.6c0.1,0.2-0.2,0.3-0.3,0.2l-2.3-1.6c-0.1,0-0.2,0-0.2,0l-2.3,1.6c-0.2,0.1-0.4,0-0.3-0.2
					l0.8-2.6c0-0.1,0-0.2-0.1-0.2l-2.2-1.7c-0.2-0.1-0.1-0.4,0.1-0.4l2.7-0.1C18.3,21.8,18.4,21.7,18.4,21.6z M52.9,21.6l0.9-2.6
					c0.1-0.2,0.3-0.2,0.4,0l0.9,2.6c0,0.1,0.1,0.1,0.2,0.1l2.7,0.1c0.2,0,0.3,0.2,0.1,0.4l-2.2,1.7c-0.1,0.1-0.1,0.1-0.1,0.2
					l0.8,2.6c0.1,0.2-0.2,0.3-0.3,0.2l-2.3-1.6c-0.1,0-0.2,0-0.2,0l-2.3,1.6c-0.2,0.1-0.4,0-0.3-0.2l0.8-2.6c0-0.1,0-0.2-0.1-0.2
					l-2.2-1.7c-0.2-0.1-0.1-0.4,0.1-0.4l2.7-0.1C52.8,21.8,52.9,21.7,52.9,21.6z M34.7,61.5c0,1.7,0.8,3,1.3,4.3c0,0,0,0.1-0.1,0
					c0,0-1.2-2.7-3-2.7c-1.2,0-2,0.9-2,1.8c0,0.7,0.5,1.1,0.9,1.2c0.5,0,0.9-0.3,0.9-0.8c0-0.1,0-0.1,0.1-0.2
					c0.2-0.1,0.6-0.2,1.4,0.2c1.1,0.5,2.1,2.1,2.1,2.1c0,0.1,0,0.1,0,0.2l-0.3,0.3c-0.3,0.3-0.2,0.7,0,0.9l0.7,0.7
					c0.1,0.1,0.2,0.1,0.3,0l0.7-0.7c0.3-0.3,0.3-0.7,0-0.9l-0.3-0.3c-0.1-0.1-0.1-0.1,0-0.2c0,0,1-1.6,2.1-2.1
					c0.8-0.4,1.2-0.2,1.4-0.2c0.1,0,0.1,0.1,0.1,0.2c0,0.4,0.4,0.8,0.9,0.8c0.4,0,0.9-0.5,0.9-1.2c0-0.8-0.7-1.8-2-1.8
					c-1.9,0-3,2.7-3,2.7c0,0-0.1,0-0.1,0c0.5-1.3,1.3-2.7,1.3-4.3c0-1.4-1.4-2.9-1.9-3.3c-0.1-0.1-0.2-0.1-0.3,0
					C36.1,58.6,34.7,60,34.7,61.5z M52.4,56.9c0,1.3,0.6,2.4,1,3.4c0,0,0,0.1-0.1,0c0,0-0.9-2.1-2.4-2.1c-1,0-1.6,0.7-1.6,1.4
					c0,0.5,0.4,0.9,0.7,0.9c0.4,0,0.7-0.2,0.7-0.6c0-0.1,0.1-0.1,0.1-0.2c0.1-0.1,0.5-0.1,1,0.1c0.8,0.4,1.6,1.7,1.6,1.7
					c0,0.1,0,0.1,0,0.2L53.3,62c-0.2,0.2-0.2,0.5,0,0.7l0.5,0.6c0.1,0.1,0.2,0.1,0.3,0l0.5-0.6c0.2-0.2,0.2-0.5,0-0.7l-0.3-0.3
					c0,0-0.1-0.1,0-0.2c0,0,0.8-1.3,1.6-1.7c0.6-0.3,0.9-0.2,1-0.1c0.1,0,0.1,0.1,0.1,0.2c0,0.3,0.3,0.6,0.7,0.6
					c0.3,0,0.7-0.4,0.7-0.9c0-0.7-0.6-1.4-1.6-1.4c-1.5,0-2.4,2.1-2.4,2.1c0,0-0.1,0-0.1,0c0.4-1,1-2.1,1-3.4c0-1-1.1-2.2-1.4-2.6
					c-0.1-0.1-0.2-0.1-0.3,0C53.5,54.7,52.4,55.8,52.4,56.9z M17.9,56.9c0,1.3,0.6,2.4,1,3.4c0,0,0,0.1-0.1,0c0,0-0.9-2.1-2.4-2.1
					c-1,0-1.6,0.7-1.6,1.4c0,0.5,0.4,0.9,0.7,0.9c0.4,0,0.7-0.2,0.7-0.6c0-0.1,0.1-0.1,0.1-0.2c0.1-0.1,0.5-0.1,1,0.1
					c0.8,0.4,1.6,1.7,1.6,1.7c0,0.1,0,0.1,0,0.2L18.8,62c-0.2,0.2-0.2,0.5,0,0.7l0.5,0.6c0.1,0.1,0.2,0.1,0.3,0l0.5-0.6
					c0.2-0.2,0.2-0.5,0-0.7l-0.3-0.3c0,0-0.1-0.1,0-0.2c0,0,0.8-1.3,1.6-1.7c0.6-0.3,0.9-0.2,1-0.1c0.1,0,0.1,0.1,0.1,0.2
					c0,0.3,0.3,0.6,0.7,0.6c0.3,0,0.7-0.4,0.7-0.9c0-0.7-0.6-1.4-1.6-1.4c-1.5,0-2.4,2.1-2.4,2.1c0,0-0.1,0-0.1,0c0.4-1,1-2.1,1-3.4
					c0-1-1.1-2.2-1.4-2.6c-0.1-0.1-0.2-0.1-0.3,0C19,54.7,17.9,55.8,17.9,56.9z"/>
				<path class="st0" d="M64.7,11.9c0-0.1-0.1-0.2-0.2-0.2c-1.9,0.4-15.2,3.1-27.7,3.1c-13.3,0-25.9-2.7-27.8-3.1
					c-0.1,0-0.2,0.1-0.2,0.2c0,3.4,0,40.2,0,47.1c0,7.3,6.9,9.1,27.9,16.7c0,0,0.1,0,0.1,0c21.1-7.6,27.9-9.4,27.9-16.7V11.9z
					 M62.3,58c0,6.6-6.3,8.3-25.5,15.3c0,0-0.1,0-0.1,0C17.4,66.3,11.1,64.6,11.1,58l0-43.1c0-0.1,0.1-0.2,0.2-0.2
					c1.9,0.4,15.2,2.9,25.4,2.9c9.6,0,23.4-2.5,25.4-2.9c0.1,0,0.2,0.1,0.2,0.2V58z"/>
			</g>
		</g>
		<path class="st0" d="M156.2,60.1c0-3.6,0-13,0-14.8c0-3.9,0.2-11.9-12.5-11.9c-4.3,0-9.2,1.6-11.6,4.9c-2.5,3.3-1.1,7.2,1.5,7.2
			s4-2,4-3.8s1-5.1,5.2-5.1c2.5,0,5.8,1.8,5.8,4.7c0,0.6,0,3.6,0,3.6s-10.8,2.7-14,4.4c-3.2,1.7-5.7,4.3-5.7,9.3
			c0,5,3.2,9.1,9.2,9.1c6,0,10.6-3.4,10.6-3.4c0.3,1.2,1.3,2.7,4.4,2.9l5.9,0v-2.5C156.9,64.6,156.2,64.1,156.2,60.1z M148.7,60.7
			c0,0-2.6,1.9-6.5,1.9c-3.9,0-5.6-2.2-5.6-4.9c0-3.7,2.8-5.6,4.8-6.7c1.9-0.9,7.3-2.6,7.3-2.6V60.7z M190.4,57.5
			c0,6.4-6.5,10.2-12.6,10.2s-9.3-1.4-10.3-1.4s-1.1,0.8-1.1,0.8h-2.5V55.3l2.5,0c0.8,2.6,3.5,9.4,10.8,9.4c3.5,0,6.5-1.4,6.5-4.3
			c0-3.9-4.3-5.1-8.4-6.9s-11.4-4.1-11.4-10.4c0-6.5,7.1-9.7,13.3-9.7c4.4,0,7.8,1.4,8.1,1.4s0.4-0.2,0.4-0.2h2.3l0,9.2l-2.5,0
			c-0.3-0.6-2.5-7.5-8.6-7.5c-2.5,0-5.5,1.3-5.5,4.1c0,3.3,4.5,4.9,8.9,6.8C184.5,49,190.4,51.8,190.4,57.5z M136.7,19.7
			c-4.8,0.7-8.7,0.7-13.5,0l0,2.5h1.6c1.4,0,3.8-0.3,2.3,4.3c-1.3,4-8.5,27.3-8.5,27.3s-7.7-24.1-8.8-27.9c-1.2-3.8,2.4-3.7,3.4-3.7
			c0,0,0-2.5,0-2.5c-6.2,1-11.3,0.9-17.5,0c0,0,0,2.5,0,2.5c1.2,0,3.8-0.6,5.6,5.1c1.9,5.8,3,9.3,3,9.3l-7.3,18.7
			c0,0-8.5-23.3-10-27.5c-1.3-3.8,0.1-5.6,1.4-5.6c0.4,0,1.6,0,1.6,0l0-2.5c-6.2,1-11.3,0.9-17.5,0l0,2.5c2.4-0.2,3.9,0.4,5.5,4.9
			c1.6,4.5,14.5,40.6,14.5,40.6H96l10.1-26l8.5,26h3.4c0,0,12.1-39,13-41.6c0.9-2.6,2.4-3.9,4.5-3.9h1.3V19.7z M204.1,37.7
			c2.6-2.5,6-4.4,10.4-4.4c7.6,0,10.8,4.9,10.8,10.1c0,7.1,0,16.3,0,16.3v0c0,2.2,0.3,3.7,1,4.3c0.6,0.6,1.1,0.6,2.7,0.6l0,2.5
			h-14.8l0-2.5c1.1,0,2,0.1,2.7-0.6c0.7-0.7,1-2.1,1-4.3c0,0,0-11.9,0-16.2c0-3.8-2.5-5.8-5.2-5.8c-5.3,0-7.8,3.9-8.5,4.9l0,17.1
			c0,2.2,0.3,3.6,1,4.3c0.7,0.7,1.4,0.6,2.7,0.6l0,2.5h-14.8l0-2.5c1.1,0,2,0.1,2.7-0.6c0.7-0.7,1-2.1,1-4.3V27.7
			c0-5.4-0.7-5.5-3.8-5.5l0-2.5c4,0.6,7.3,0.6,11.3,0L204.1,37.7z M272.7,19.7c-4.7,0.8-8.6,0.7-13.4,0l0,2.5c2,0,5-0.8,5,5.6
			c0,1.3,0,23.3,0,23.3c0,7.7-4.9,12.9-12.7,12.9c-11.7,0-11.7-10.8-11.7-16.9s0-19,0-19.3c0-6.1,1.7-5.6,4.2-5.6l0-2.5
			c-5.9,0.9-10.7,0.9-16.6,0v2.5c2.4,0,4.2-0.6,4.2,5.6c0,0.3,0.1,14.6,0.1,19.3c0,14.1,5.4,20.6,19.9,20.6
			c7.4,0,16.3-4.2,16.3-17.4c0-2.4,0-16.4,0-22.4s2.3-5.6,4.7-5.6L272.7,19.7z"/>
	</g>
	<g>
		<g>
			<path class="st0" d="M283.7,67.1l11.1-34.9h6l11.1,34.9h-4.3l-3-9.4h-13.6l-3,9.4H283.7z M292,54.2h11.4L297.8,36L292,54.2z"/>
			<path class="st0" d="M317,67.1V43h3.4v5.3c1.2-3.1,3.4-5.8,7.1-5.8c1.1,0,2,0.2,3,0.5l-0.9,3.7c-0.7-0.2-1.4-0.4-2.4-0.4
				c-3.2,0-5.1,2.6-5.8,5.5c-0.3,1.2-0.4,2.4-0.5,3.7v11.6H317z"/>
			<path class="st0" d="M340.4,46.3v13.2c0,3.2,1.3,4.8,4,4.8c1,0,2.2-0.2,3.2-0.5l0.4,3.3c-1.2,0.3-2.8,0.6-4.4,0.6
				c-5,0-7.2-2.8-7.2-8.5V46.3h-4.2V43h4.2v-6.8l4-0.8V43h7.1v3.3H340.4z"/>
			<path class="st0" d="M350.5,64.4l1.9-2.5c1.5,1.5,4.4,2.6,7.2,2.6c2.8,0,5.2-1.2,5.2-3.7c0-2.3-2.2-3.1-4.7-3.9l-1.8-0.6
				c-3.9-1.2-7.2-2.9-7.2-7.1c0-4.6,4-6.6,8.6-6.6c3.2,0,6,1.1,7.6,2.6l-1.9,2.5c-1.2-1.2-3.3-2-5.5-2c-2.7,0-4.8,1.1-4.8,3.3
				s2.4,3.2,4.7,3.9l1.8,0.6c3.8,1.2,7.1,2.8,7.1,7.1c0,4.8-4.4,7.1-9.2,7.1C355.9,67.6,352.4,66.3,350.5,64.4z"/>
			<path class="st0" d="M378.8,57.9c0-4.9,2.4-8.1,7.6-10.5c-1.7-1.9-3.6-4.5-3.6-7.7c0-4.7,3.7-8.1,8.7-8.1c4.9,0,8.7,3.2,8.7,7.9
				c0,4.4-3.1,6.9-8,8.9l9.4,9.7c1.3-2.1,1.9-4.5,1.9-7.3v-1.3l3.7,0.6v0.7c0,3.7-1.1,7.2-3,9.9c2.4,2.4,4.2,2.9,6.8,3v3.5
				c-3.6,0-6.2-0.9-9.2-3.7c-2.9,2.6-6.8,4.2-11.2,4.2C383.5,67.6,378.8,63.5,378.8,57.9z M399.2,61l-10.8-11.1
				c-4.2,1.9-5.7,4.2-5.7,7.8c0,3.7,3.3,6.7,7.9,6.7C394,64.3,397,63.1,399.2,61z M389.9,46c4.9-1.8,6.3-3.5,6.3-6.3s-2-4.8-4.8-4.8
				s-4.8,2-4.8,4.8C386.6,42.2,388,44,389.9,46z"/>
			<path class="st0" d="M419.3,62.2l2.5-2.4c1.3,1.8,4.2,4.3,8.5,4.3c4.7,0,7.3-2.6,7.3-6.4c0-3.6-2.6-5.2-6-6.4l-2.4-0.8
				c-5.4-1.7-8.6-4.2-8.6-9.7s4.2-9,10.7-9c4.8,0,8.2,2.3,10,4.8l-2.5,2.4c-1.2-1.7-3.9-3.6-7.5-3.6c-4,0-6.6,2.1-6.6,5.4
				c0,3.4,2.4,5,5.9,6.1l2.4,0.9c5.4,1.7,8.8,4.5,8.8,10c0,5.9-4.2,10-11.5,10C424.7,67.6,421,64.5,419.3,62.2z"/>
			<path class="st0" d="M446,55.1c0-7.6,4-12.6,11.1-12.6c4.8,0,8,2.6,9.2,5.7l-3.5,1c-0.9-1.9-2.6-3.3-5.7-3.3
				c-4.6,0-7.2,3.5-7.2,9.2c0,5.7,2.5,9.2,7.1,9.2c3.2,0,4.9-1.5,6-3.5l3.3,1c-1.2,3.1-4.5,5.9-9.4,5.9C450,67.6,446,62.8,446,55.1z
				"/>
			<path class="st0" d="M471.2,36c0-1.5,1.2-2.7,2.8-2.7s2.8,1.2,2.8,2.7c0,1.5-1.2,2.8-2.8,2.8S471.2,37.5,471.2,36z M472,67.1V43
				h3.9v24.1H472z"/>
			<path class="st0" d="M482.2,55.1c0-7.6,4.1-12.6,11.1-12.6c7,0,10.6,5,10.6,13.6h-17.9c0.3,5.2,3,8.4,7.3,8.4
				c3.2,0,5.2-1.5,6.6-4l3.5,1.2c-1.9,3.6-5.1,6-10.1,6C486.2,67.6,482.2,62.8,482.2,55.1z M486.2,53H500c-0.3-4.5-2.8-7.4-6.7-7.4
				C489.3,45.6,486.7,48.3,486.2,53z"/>
			<path class="st0" d="M510.2,67.1V43h3.5v4.9c1.6-3,4.3-5.4,8.5-5.4c4.7,0,7.6,2.8,7.6,9.2v15.5h-4V52.4c0-4.6-1.8-6.3-4.6-6.3
				c-3.6,0-5.9,2.4-6.7,5.1c-0.2,0.6-0.3,1.4-0.4,3v12.9H510.2z"/>
			<path class="st0" d="M535.5,55.1c0-7.6,4-12.6,11.1-12.6c4.8,0,8,2.6,9.2,5.7l-3.5,1c-0.9-1.9-2.6-3.3-5.7-3.3
				c-4.6,0-7.2,3.5-7.2,9.2c0,5.7,2.5,9.2,7.1,9.2c3.2,0,4.9-1.5,6-3.5l3.3,1c-1.2,3.1-4.5,5.9-9.4,5.9
				C539.4,67.6,535.5,62.8,535.5,55.1z"/>
			<path class="st0" d="M559.4,55.1c0-7.6,4.1-12.6,11.1-12.6c7,0,10.6,5,10.6,13.6h-17.9c0.3,5.2,3,8.4,7.3,8.4
				c3.2,0,5.2-1.5,6.6-4l3.5,1.2c-1.9,3.6-5.1,6-10.1,6C563.4,67.6,559.4,62.8,559.4,55.1z M563.3,53h13.9c-0.3-4.5-2.8-7.4-6.7-7.4
				C566.5,45.6,563.9,48.3,563.3,53z"/>
			<path class="st0" d="M584.9,64.4l1.9-2.5c1.5,1.5,4.4,2.6,7.2,2.6c2.8,0,5.2-1.2,5.2-3.7c0-2.3-2.2-3.1-4.7-3.9l-1.8-0.6
				c-3.9-1.2-7.2-2.9-7.2-7.1c0-4.6,4-6.6,8.6-6.6c3.2,0,6,1.1,7.6,2.6l-1.9,2.5c-1.2-1.2-3.3-2-5.5-2c-2.7,0-4.8,1.1-4.8,3.3
				s2.4,3.2,4.7,3.9l1.8,0.6c3.8,1.2,7.1,2.8,7.1,7.1c0,4.8-4.4,7.1-9.2,7.1C590.3,67.6,586.9,66.3,584.9,64.4z"/>
		</g>
	</g>
</g>
<rect x="142.4" y="107.7" class="st0" width="327.2" height="2"/>
</svg>
